{
    "asset" : {
        "generator" : "Khronos glTF Blender I/O v1.3.48",
        "version" : "2.0"
    },
    "scene" : 0,
    "scenes" : [
        {
            "name" : "Scene",
            "nodes" : [
                0,
                1,
                2,
                3,
                4,
                5
            ]
        }
    ],
    "nodes" : [
        {
            "mesh" : 0,
            "name" : "Ground"
        },
        {
            "mesh" : 1,
            "name" : "Stairs"
        },
        {
            "mesh" : 2,
            "name" : "Ramp"
        },
        {
            "mesh" : 3,
            "name" : "Cylinder.003"
        },
        {
            "mesh" : 4,
            "name" : "Cylinder.001"
        },
        {
            "mesh" : 5,
            "name" : "Cylinder.002"
        }
    ],
    "meshes" : [
        {
            "name" : "Ground",
            "primitives" : [
                {
                    "attributes" : {
                        "POSITION" : 0,
                        "NORMAL" : 1,
                        "TEXCOORD_0" : 2
                    },
                    "indices" : 3
                }
            ]
        },
        {
            "name" : "Cube.002",
            "primitives" : [
                {
                    "attributes" : {
                        "POSITION" : 4,
                        "NORMAL" : 5,
                        "TEXCOORD_0" : 6
                    },
                    "indices" : 7
                }
            ]
        },
        {
            "name" : "Cube.003",
            "primitives" : [
                {
                    "attributes" : {
                        "POSITION" : 8,
                        "NORMAL" : 9,
                        "TEXCOORD_0" : 10
                    },
                    "indices" : 11
                }
            ]
        },
        {
            "name" : "Cylinder.004",
            "primitives" : [
                {
                    "attributes" : {
                        "POSITION" : 12,
                        "NORMAL" : 13,
                        "TEXCOORD_0" : 14
                    },
                    "indices" : 15
                }
            ]
        },
        {
            "name" : "Cylinder.005",
            "primitives" : [
                {
                    "attributes" : {
                        "POSITION" : 16,
                        "NORMAL" : 17,
                        "TEXCOORD_0" : 18
                    },
                    "indices" : 15
                }
            ]
        },
        {
            "name" : "Cylinder.006",
            "primitives" : [
                {
                    "attributes" : {
                        "POSITION" : 19,
                        "NORMAL" : 20,
                        "TEXCOORD_0" : 21
                    },
                    "indices" : 15
                }
            ]
        }
    ],
    "accessors" : [
        {
            "bufferView" : 0,
            "componentType" : 5126,
            "count" : 84,
            "max" : [
                25,
                0,
                25
            ],
            "min" : [
                -25,
                -1,
                -25
            ],
            "type" : "VEC3"
        },
        {
            "bufferView" : 1,
            "componentType" : 5126,
            "count" : 84,
            "type" : "VEC3"
        },
        {
            "bufferView" : 2,
            "componentType" : 5126,
            "count" : 84,
            "type" : "VEC2"
        },
        {
            "bufferView" : 3,
            "componentType" : 5123,
            "count" : 198,
            "type" : "SCALAR"
        },
        {
            "bufferView" : 4,
            "componentType" : 5126,
            "count" : 267,
            "max" : [
                5.25,
                4,
                14.365266799926758
            ],
            "min" : [
                -13.670173645019531,
                0,
                8.519220352172852
            ],
            "type" : "VEC3"
        },
        {
            "bufferView" : 5,
            "componentType" : 5126,
            "count" : 267,
            "type" : "VEC3"
        },
        {
            "bufferView" : 6,
            "componentType" : 5126,
            "count" : 267,
            "type" : "VEC2"
        },
        {
            "bufferView" : 7,
            "componentType" : 5123,
            "count" : 357,
            "type" : "SCALAR"
        },
        {
            "bufferView" : 8,
            "componentType" : 5126,
            "count" : 7,
            "max" : [
                -5.9011335372924805,
                3.2782554626464844e-07,
                -5.960464477539062e-07
            ],
            "min" : [
                -7.9011335372924805,
                -0.9999996423721313,
                -2.000000476837158
            ],
            "type" : "VEC3"
        },
        {
            "bufferView" : 9,
            "componentType" : 5126,
            "count" : 7,
            "type" : "VEC3"
        },
        {
            "bufferView" : 10,
            "componentType" : 5126,
            "count" : 7,
            "type" : "VEC2"
        },
        {
            "bufferView" : 11,
            "componentType" : 5123,
            "count" : 9,
            "type" : "SCALAR"
        },
        {
            "bufferView" : 12,
            "componentType" : 5126,
            "count" : 192,
            "max" : [
                8.55838680267334,
                1,
                -1.5686111450195312
            ],
            "min" : [
                6.55838680267334,
                0,
                -3.5686111450195312
            ],
            "type" : "VEC3"
        },
        {
            "bufferView" : 13,
            "componentType" : 5126,
            "count" : 192,
            "type" : "VEC3"
        },
        {
            "bufferView" : 14,
            "componentType" : 5126,
            "count" : 192,
            "type" : "VEC2"
        },
        {
            "bufferView" : 15,
            "componentType" : 5123,
            "count" : 372,
            "type" : "SCALAR"
        },
        {
            "bufferView" : 16,
            "componentType" : 5126,
            "count" : 192,
            "max" : [
                8.550895690917969,
                1,
                -5.795601844787598
            ],
            "min" : [
                6.5508952140808105,
                0,
                -7.795601844787598
            ],
            "type" : "VEC3"
        },
        {
            "bufferView" : 17,
            "componentType" : 5126,
            "count" : 192,
            "type" : "VEC3"
        },
        {
            "bufferView" : 18,
            "componentType" : 5126,
            "count" : 192,
            "type" : "VEC2"
        },
        {
            "bufferView" : 19,
            "componentType" : 5126,
            "count" : 192,
            "max" : [
                8.507548332214355,
                1,
                -9.712276458740234
            ],
            "min" : [
                6.5075483322143555,
                0,
                -11.712276458740234
            ],
            "type" : "VEC3"
        },
        {
            "bufferView" : 20,
            "componentType" : 5126,
            "count" : 192,
            "type" : "VEC3"
        },
        {
            "bufferView" : 21,
            "componentType" : 5126,
            "count" : 192,
            "type" : "VEC2"
        }
    ],
    "bufferViews" : [
        {
            "buffer" : 0,
            "byteLength" : 1008,
            "byteOffset" : 0
        },
        {
            "buffer" : 0,
            "byteLength" : 1008,
            "byteOffset" : 1008
        },
        {
            "buffer" : 0,
            "byteLength" : 672,
            "byteOffset" : 2016
        },
        {
            "buffer" : 0,
            "byteLength" : 396,
            "byteOffset" : 2688
        },
        {
            "buffer" : 0,
            "byteLength" : 3204,
            "byteOffset" : 3084
        },
        {
            "buffer" : 0,
            "byteLength" : 3204,
            "byteOffset" : 6288
        },
        {
            "buffer" : 0,
            "byteLength" : 2136,
            "byteOffset" : 9492
        },
        {
            "buffer" : 0,
            "byteLength" : 714,
            "byteOffset" : 11628
        },
        {
            "buffer" : 0,
            "byteLength" : 84,
            "byteOffset" : 12344
        },
        {
            "buffer" : 0,
            "byteLength" : 84,
            "byteOffset" : 12428
        },
        {
            "buffer" : 0,
            "byteLength" : 56,
            "byteOffset" : 12512
        },
        {
            "buffer" : 0,
            "byteLength" : 18,
            "byteOffset" : 12568
        },
        {
            "buffer" : 0,
            "byteLength" : 2304,
            "byteOffset" : 12588
        },
        {
            "buffer" : 0,
            "byteLength" : 2304,
            "byteOffset" : 14892
        },
        {
            "buffer" : 0,
            "byteLength" : 1536,
            "byteOffset" : 17196
        },
        {
            "buffer" : 0,
            "byteLength" : 744,
            "byteOffset" : 18732
        },
        {
            "buffer" : 0,
            "byteLength" : 2304,
            "byteOffset" : 19476
        },
        {
            "buffer" : 0,
            "byteLength" : 2304,
            "byteOffset" : 21780
        },
        {
            "buffer" : 0,
            "byteLength" : 1536,
            "byteOffset" : 24084
        },
        {
            "buffer" : 0,
            "byteLength" : 2304,
            "byteOffset" : 25620
        },
        {
            "buffer" : 0,
            "byteLength" : 2304,
            "byteOffset" : 27924
        },
        {
            "buffer" : 0,
            "byteLength" : 1536,
            "byteOffset" : 30228
        }
    ],
    "buffers" : [
        {
            "byteLength" : 31764,
            "uri" : "data:application/octet-stream;base64,"
        }
    ]
}
